<svg width="576" height="286" viewBox="0 0 576 286" fill="none" xmlns="http://www.w3.org/2000/svg">
<path opacity="0.1" d="M94.4767 119.886C47.5588 118.226 2.94296 196.21 -9.1315 228.727V331.5H595.719V75C539.744 72.5 522.042 16.1051 479.134 16.1051C436.227 16.1051 397.488 97.7452 375.639 140.641C357.7 178.832 334.816 186.996 325.616 186.304C282.838 187.964 250.295 102.589 239.37 59.6932C229.711 11.5386 218.836 1.57644 213.496 1.5765C204.538 1.54545 191.072 15.6905 177.273 63.8443C163.474 111.998 141.625 125.42 132.425 126.112C119.557 127.08 104.251 119.886 94.4767 119.886Z" fill="url(#paint0_linear_584_168)"/>
<path d="M-8.69121 104.898C10.2823 95.5935 24.3921 94.3272 35.703 97.4941C47.0413 100.669 55.7522 108.346 63.8362 117.331C67.8818 121.828 71.7277 126.601 75.6821 131.294C79.623 135.971 83.6537 140.545 88.0123 144.56C96.7453 152.604 106.847 158.449 120.303 158.449V156.449C107.516 156.449 97.8754 150.926 89.3672 143.089C85.1052 139.163 81.1406 134.668 77.2115 130.006C73.2958 125.359 69.397 120.522 65.3231 115.993C57.1681 106.929 48.1411 98.8997 36.2423 95.5682C24.3163 92.229 9.68989 93.6565 -9.57179 103.102L-8.69121 104.898ZM120.303 158.449C133.622 158.449 142.756 154.968 149.888 149.551C156.975 144.169 162.026 136.91 167.226 129.54C172.45 122.134 177.85 114.572 185.68 108.294C193.489 102.034 203.758 97.0207 218.742 94.8339L218.453 92.8548C203.137 95.0902 192.531 100.238 184.429 106.734C176.35 113.211 170.804 120.997 165.591 128.387C160.353 135.813 155.474 142.797 148.678 147.958C141.928 153.086 133.229 156.449 120.303 156.449V158.449ZM218.742 94.8339C233.56 92.6712 247.057 97.5739 259.8 106.276C272.559 114.989 284.478 127.453 296.11 140.277C307.71 153.066 319.041 166.231 330.537 176.176C342.029 186.116 353.862 193 366.516 193V191C354.596 191 343.228 184.509 331.846 174.663C320.468 164.822 309.253 151.79 297.592 138.934C285.963 126.114 273.904 113.486 260.927 104.624C247.934 95.751 233.934 90.5954 218.453 92.8548L218.742 94.8339ZM366.516 193C379.321 193 390.228 183.694 399.597 170.227C408.995 156.72 417.036 138.752 424.05 120.865C427.559 111.914 430.817 102.965 433.862 94.5876C436.908 86.2039 439.737 78.3994 442.396 71.7132C445.058 65.0172 447.529 59.4969 449.85 55.6622C451.011 53.743 452.106 52.2949 453.133 51.3373C454.167 50.373 455.03 50 455.744 50V48C454.311 48 452.982 48.7441 451.769 49.8745C450.55 51.0117 449.343 52.6358 448.138 54.6268C445.727 58.6124 443.206 64.264 440.537 70.9742C437.865 77.6943 435.025 85.5305 431.982 93.9045C428.937 102.285 425.686 111.211 422.188 120.135C415.184 137.998 407.211 155.78 397.955 169.085C388.67 182.431 378.284 191 366.516 191V193ZM455.744 50C457.472 50 458.935 50.8873 460.283 52.7098C461.649 54.5575 462.812 57.2625 463.895 60.6341C464.974 63.992 465.949 67.9218 466.976 72.1742C468 76.4145 469.075 80.9667 470.348 85.5193C472.891 94.6088 476.258 103.831 481.731 110.79C487.243 117.798 494.886 122.5 505.845 122.5V120.5C495.571 120.5 488.482 116.139 483.303 109.554C478.085 102.919 474.802 94.0162 472.274 84.9806C471.013 80.4708 469.948 75.9604 468.92 71.7046C467.895 67.4609 466.905 63.4611 465.799 60.0221C464.698 56.5968 463.457 53.6378 461.891 51.5206C460.307 49.3783 458.311 48 455.744 48V50ZM505.845 122.5C527.446 122.5 544.949 110.325 562.174 98.1902C579.501 85.984 596.554 73.8159 617.539 72.9992L617.461 71.0007C595.781 71.8445 578.24 84.4264 561.023 96.5551C543.704 108.755 526.712 120.5 505.845 120.5V122.5Z" fill="#DFE0EB"/>
<path d="M94.0109 119.886L93.9754 120.886C93.9873 120.886 93.9991 120.886 94.011 120.886L94.0109 119.886ZM131.789 126.112L131.864 127.109L131.789 126.112ZM212.496 1.5765L212.492 2.5765H212.496L212.496 1.5765ZM238.253 59.6932L237.273 59.889C237.276 59.9057 237.28 59.9224 237.284 59.9389L238.253 59.6932ZM324.112 186.304L324.187 185.307C324.149 185.304 324.111 185.303 324.073 185.305L324.112 186.304ZM373.909 140.641L373.018 140.189C373.013 140.198 373.008 140.208 373.004 140.217L373.909 140.641ZM-8.19353 229.074C-2.21776 212.908 11.8409 185.376 30.2169 162.11C39.4031 150.479 49.6397 139.951 60.4513 132.441C71.2651 124.929 82.5877 120.481 93.9754 120.886L94.0465 118.887C82.0806 118.462 70.3363 123.139 59.3102 130.798C48.2819 138.459 37.906 149.148 28.6474 160.87C10.134 184.31 -4.02506 212.029 -10.0695 228.381L-8.19353 229.074ZM94.011 120.886C98.7155 120.886 104.788 122.633 111.5 124.331C118.117 126.007 125.276 127.607 131.864 127.109L131.713 125.115C125.491 125.585 118.627 124.073 111.991 122.393C105.449 120.737 99.037 118.886 94.0109 118.886L94.011 120.886ZM131.864 127.109C136.8 126.736 144.751 123.007 153.146 113.436C161.566 103.838 170.498 88.3016 177.397 64.1187L175.473 63.57C168.635 87.5408 159.823 102.792 151.643 112.117C143.439 121.469 135.935 124.796 131.713 125.115L131.864 127.109ZM177.397 64.1187C184.253 40.0843 191.006 24.6169 197.112 15.1845C203.255 5.69519 208.574 2.56285 212.492 2.57649L212.499 0.576504C207.499 0.559099 201.657 4.48377 195.433 14.0977C189.173 23.7685 182.354 39.4505 175.473 63.57L177.397 64.1187ZM212.496 2.5765C213.505 2.57649 214.953 3.05208 216.749 4.63555C218.543 6.21767 220.628 8.85891 222.881 13.0502C227.386 21.4343 232.473 35.8533 237.273 59.889L239.234 59.4973C234.417 35.3784 229.283 20.7391 224.642 12.1035C222.322 7.78491 220.103 4.92596 218.072 3.13537C216.042 1.34613 214.143 0.576479 212.496 0.576497L212.496 2.5765ZM237.284 59.9389C242.735 81.4411 253.581 113.597 268.418 140.194C275.835 153.491 284.278 165.449 293.583 173.99C302.888 182.531 313.144 187.732 324.151 187.303L324.073 185.305C313.787 185.706 304.023 180.858 294.936 172.517C285.85 164.177 277.529 152.422 270.164 139.22C255.437 112.82 244.646 80.8406 239.222 59.4474L237.284 59.9389ZM324.036 187.301C333.771 188.036 356.861 179.459 374.815 141.064L373.004 140.217C355.24 178.204 332.769 185.955 324.187 185.307L324.036 187.301ZM374.801 141.093C385.691 119.616 400.735 88.5567 418.387 62.8532C427.212 50.0033 436.658 38.5404 446.521 30.299C456.389 22.0533 466.587 17.1051 476.94 17.1051V15.1051C465.935 15.1051 455.294 20.3619 445.238 28.7642C435.178 37.1708 425.613 48.799 416.739 61.721C398.992 87.5615 383.878 118.77 373.018 140.189L374.801 141.093ZM476.94 17.1051C497.849 17.1051 512.634 30.88 529.438 45.3723C546.156 59.7899 564.722 74.7323 592.955 75.999L593.045 74.001C565.554 72.7676 547.447 58.2626 530.745 43.8578C514.128 29.5277 498.745 15.1051 476.94 15.1051V17.1051Z" fill="#3751FF"/>
<circle opacity="0.16" cx="414" cy="65" r="13" stroke="#3751FF" stroke-width="2"/>
<g filter="url(#filter0_d_584_168)">
<circle cx="414" cy="65" r="7" fill="white"/>
<circle cx="414" cy="65" r="5" stroke="#3751FF" stroke-width="4"/>
</g>
<g filter="url(#filter1_d_584_168)">
<mask id="path-7-outside-1_584_168" maskUnits="userSpaceOnUse" x="381" y="2.99997" width="66" height="38" fill="black">
<rect fill="white" x="381" y="2.99997" width="66" height="38"/>
<path fill-rule="evenodd" clip-rule="evenodd" d="M386 3.99997H442C444.209 3.99997 446 5.79083 446 7.99997V30C446 32.2091 444.209 34 442 34L421 34L414.26 39.7768C414.111 39.9052 413.889 39.9052 413.74 39.7768L407 34L386 34C383.791 34 382 32.2091 382 30V7.99997C382 5.79083 383.791 3.99997 386 3.99997Z"/>
</mask>
<path fill-rule="evenodd" clip-rule="evenodd" d="M386 3.99997H442C444.209 3.99997 446 5.79083 446 7.99997V30C446 32.2091 444.209 34 442 34L421 34L414.26 39.7768C414.111 39.9052 413.889 39.9052 413.74 39.7768L407 34L386 34C383.791 34 382 32.2091 382 30V7.99997C382 5.79083 383.791 3.99997 386 3.99997Z" fill="white"/>
<path d="M442 34V34.5V34ZM421 34V33.5H420.815L420.675 33.6203L421 34ZM414.26 39.7768L413.935 39.3972L413.935 39.3972L414.26 39.7768ZM413.74 39.7768L414.065 39.3972L414.065 39.3972L413.74 39.7768ZM407 34L407.325 33.6203L407.185 33.5H407V34ZM386 34V34.5V34ZM442 3.49997H386V4.49997H442V3.49997ZM446.5 7.99997C446.5 5.51469 444.485 3.49997 442 3.49997V4.49997C443.933 4.49997 445.5 6.06697 445.5 7.99997H446.5ZM446.5 30V7.99997H445.5V30H446.5ZM442 34.5C444.485 34.5 446.5 32.4853 446.5 30H445.5C445.5 31.933 443.933 33.5 442 33.5V34.5ZM421 34.5L442 34.5V33.5L421 33.5V34.5ZM420.675 33.6203L413.935 39.3972L414.586 40.1565L421.325 34.3796L420.675 33.6203ZM413.935 39.3972C413.972 39.3651 414.028 39.3651 414.065 39.3972L413.414 40.1565C413.751 40.4454 414.249 40.4454 414.586 40.1565L413.935 39.3972ZM414.065 39.3972L407.325 33.6203L406.675 34.3796L413.414 40.1565L414.065 39.3972ZM386 34.5L407 34.5V33.5L386 33.5V34.5ZM381.5 30C381.5 32.4853 383.515 34.5 386 34.5V33.5C384.067 33.5 382.5 31.933 382.5 30H381.5ZM381.5 7.99997V30H382.5V7.99997H381.5ZM386 3.49997C383.515 3.49997 381.5 5.51469 381.5 7.99997H382.5C382.5 6.06697 384.067 4.49997 386 4.49997V3.49997Z" fill="#DFE0EB" mask="url(#path-7-outside-1_584_168)"/>
</g>
<path d="M411.075 18.876C411.654 19.044 412.097 19.3333 412.405 19.744C412.713 20.1546 412.867 20.6726 412.867 21.298C412.867 22.166 412.559 22.852 411.943 23.356C411.337 23.8506 410.511 24.098 409.465 24.098C408.803 24.098 408.168 23.9953 407.561 23.79C406.964 23.5753 406.465 23.2766 406.063 22.894L406.581 21.83C407.477 22.558 408.425 22.922 409.423 22.922C410.786 22.922 411.467 22.348 411.467 21.2C411.467 20.64 411.29 20.2246 410.935 19.954C410.581 19.674 410.044 19.534 409.325 19.534H408.107V18.358H409.101C409.792 18.358 410.319 18.2133 410.683 17.924C411.047 17.6346 411.229 17.2146 411.229 16.664C411.229 16.16 411.075 15.7726 410.767 15.502C410.469 15.2313 410.044 15.096 409.493 15.096C408.56 15.096 407.636 15.46 406.721 16.188L406.203 15.124C406.595 14.7506 407.09 14.4566 407.687 14.242C408.294 14.0273 408.919 13.92 409.563 13.92C410.497 13.92 411.239 14.1533 411.789 14.62C412.349 15.0773 412.629 15.698 412.629 16.482C412.629 17.0513 412.494 17.546 412.223 17.966C411.953 18.386 411.57 18.6893 411.075 18.876ZM419.796 18.876C420.44 19.0533 420.939 19.3566 421.294 19.786C421.658 20.2153 421.84 20.7333 421.84 21.34C421.84 22.1986 421.509 22.8753 420.846 23.37C420.193 23.8553 419.311 24.098 418.2 24.098C417.089 24.098 416.203 23.8553 415.54 23.37C414.887 22.8753 414.56 22.1986 414.56 21.34C414.56 20.724 414.742 20.2013 415.106 19.772C415.47 19.3426 415.979 19.044 416.632 18.876C416.053 18.6893 415.601 18.3953 415.274 17.994C414.957 17.5926 414.798 17.1213 414.798 16.58C414.798 16.048 414.943 15.5813 415.232 15.18C415.521 14.7786 415.923 14.4706 416.436 14.256C416.949 14.032 417.537 13.92 418.2 13.92C418.863 13.92 419.451 14.032 419.964 14.256C420.477 14.4706 420.879 14.7786 421.168 15.18C421.457 15.5813 421.602 16.048 421.602 16.58C421.602 17.1213 421.443 17.5973 421.126 18.008C420.809 18.4093 420.365 18.6986 419.796 18.876ZM416.184 16.706C416.184 17.1913 416.366 17.588 416.73 17.896C417.094 18.1946 417.584 18.386 418.2 18.47C418.816 18.386 419.306 18.1946 419.67 17.896C420.034 17.588 420.216 17.1913 420.216 16.706C420.216 16.1926 420.034 15.796 419.67 15.516C419.315 15.2266 418.825 15.082 418.2 15.082C417.575 15.082 417.08 15.2266 416.716 15.516C416.361 15.796 416.184 16.1926 416.184 16.706ZM418.2 22.936C418.919 22.936 419.474 22.7913 419.866 22.502C420.258 22.2126 420.454 21.7926 420.454 21.242C420.454 20.7286 420.249 20.3226 419.838 20.024C419.437 19.716 418.891 19.52 418.2 19.436C417.509 19.52 416.959 19.716 416.548 20.024C416.147 20.3226 415.946 20.7286 415.946 21.242C415.946 21.7926 416.142 22.2126 416.534 22.502C416.926 22.7913 417.481 22.936 418.2 22.936Z" fill="#252733"/>
<defs>
<filter id="filter0_d_584_168" x="405" y="57" width="18" height="18" filterUnits="userSpaceOnUse" color-interpolation-filters="sRGB">
<feFlood flood-opacity="0" result="BackgroundImageFix"/>
<feColorMatrix in="SourceAlpha" type="matrix" values="0 0 0 0 0 0 0 0 0 0 0 0 0 0 0 0 0 0 127 0" result="hardAlpha"/>
<feOffset dy="1"/>
<feGaussianBlur stdDeviation="1"/>
<feColorMatrix type="matrix" values="0 0 0 0 0.215686 0 0 0 0 0.317647 0 0 0 0 1 0 0 0 0.2 0"/>
<feBlend mode="normal" in2="BackgroundImageFix" result="effect1_dropShadow_584_168"/>
<feBlend mode="normal" in="SourceGraphic" in2="effect1_dropShadow_584_168" result="shape"/>
</filter>
<filter id="filter1_d_584_168" x="377.5" y="0.499969" width="73" height="44.8732" filterUnits="userSpaceOnUse" color-interpolation-filters="sRGB">
<feFlood flood-opacity="0" result="BackgroundImageFix"/>
<feColorMatrix in="SourceAlpha" type="matrix" values="0 0 0 0 0 0 0 0 0 0 0 0 0 0 0 0 0 0 127 0" result="hardAlpha"/>
<feOffset dy="1"/>
<feGaussianBlur stdDeviation="2"/>
<feColorMatrix type="matrix" values="0 0 0 0 0 0 0 0 0 0 0 0 0 0 0 0 0 0 0.08 0"/>
<feBlend mode="normal" in2="BackgroundImageFix" result="effect1_dropShadow_584_168"/>
<feBlend mode="normal" in="SourceGraphic" in2="effect1_dropShadow_584_168" result="shape"/>
</filter>
<linearGradient id="paint0_linear_584_168" x1="-0.3941" y1="175.5" x2="576.103" y2="175.978" gradientUnits="userSpaceOnUse">
<stop stop-color="#3751FF"/>
<stop offset="1" stop-color="#3751FF" stop-opacity="0"/>
</linearGradient>
</defs>
</svg>
